<svg width="67" height="67" viewBox="0 0 67 67" fill="none" xmlns="http://www.w3.org/2000/svg">
<path d="M18.1952 28.9219L20.4049 29.2344L18.1952 28.9219ZM18.1506 29.2344L15.9409 28.9219L18.1506 29.2344ZM48.7647 28.9219L50.9744 28.6094L48.7647 28.9219ZM48.8094 29.2344L46.5997 29.5469L48.8094 29.2344ZM42.408 55.8398V58.0718C42.9999 58.0718 43.5677 57.8367 43.9862 57.4181C44.4048 56.9995 44.64 56.4318 44.64 55.8398H42.408ZM24.552 55.8398H22.32C22.32 56.4318 22.5551 56.9995 22.9737 57.4181C23.3923 57.8367 23.96 58.0718 24.552 58.0718V55.8398ZM21.2263 40.8988L22.994 39.5328L21.2263 40.8988ZM45.7337 40.8988L43.9659 39.5328L45.7337 40.8988ZM26.784 66.9998H40.176V62.5358H26.784V66.9998ZM15.9811 28.6094L15.9364 28.9219L20.3558 29.5469L20.4004 29.2344L15.9811 28.6094ZM33.48 13.4318C29.2246 13.4311 25.1119 14.9658 21.8972 17.754C18.6826 20.5422 16.5819 24.3967 15.9811 28.6094L20.4004 29.2344C20.8507 26.0866 22.4214 23.2069 24.8241 21.124C27.2267 19.0412 30.3001 17.8949 33.48 17.8958V13.4318ZM50.9789 28.6094C50.378 24.3967 48.2773 20.5422 45.0627 17.754C41.8481 14.9658 37.7353 13.4311 33.48 13.4318V17.8958C36.6595 17.8959 39.7324 19.0424 42.1349 21.1251C44.5374 23.2078 46.1083 26.087 46.5595 29.2344L50.9789 28.6094ZM51.0235 28.9219L50.9789 28.6094L46.5595 29.2344L46.6041 29.5469L51.0235 28.9219ZM47.4969 42.2648C50.3093 38.6311 51.7288 33.8948 51.0235 28.9174L46.6041 29.5513C46.8598 31.3067 46.7583 33.0956 46.3057 34.8108C45.8531 36.526 45.0588 38.1321 43.9704 39.5328L47.4969 42.2648ZM40.176 48.6974V55.8398H44.64V48.7019H40.176V48.6974ZM42.408 53.6078H24.552V58.0718H42.408V53.6078ZM26.784 55.8398V48.7019H22.32V55.8398H26.784ZM15.9364 28.9219C15.5971 31.2688 15.7345 33.66 16.3404 35.9526C16.9464 38.2452 18.0084 40.392 19.463 42.2648L22.9896 39.5328C21.9011 38.1321 21.1068 36.526 20.6542 34.8108C20.2016 33.0956 20.1001 31.3067 20.3558 29.5513L15.9364 28.9174V28.9219ZM26.784 48.6974C26.784 45.0236 24.8287 41.8988 22.9896 39.5284L19.463 42.2603C21.1727 44.47 22.32 46.5815 22.32 48.6974H26.784ZM43.9704 39.5284C42.1267 41.9032 40.176 45.0236 40.176 48.6974H44.64C44.64 46.5815 45.7872 44.47 47.4969 42.2603L43.9704 39.5284ZM31.248 0.0397949V8.9678H35.712V0.0397949H31.248ZM-6.10352e-05 35.7518H8.92795V31.2878H-6.10352e-05V35.7518ZM58.032 35.7518H66.96V31.2878H58.032V35.7518ZM14.9722 16.3156L8.2762 9.61955L5.11569 12.7801L11.8117 19.4761L14.9722 16.3156ZM55.1482 19.4761L61.8442 12.7801L58.6837 9.61955L51.9877 16.3156L55.1482 19.4761Z" fill="black"/>
</svg>
