<svg width="57" height="57" viewBox="0 0 57 57" fill="none" xmlns="http://www.w3.org/2000/svg">
<path d="M21.2344 39.7527L23.02 39.4458C23.366 39.3844 23.7789 39.2951 24.256 39.1724C30.154 37.6937 34.06 33.2855 34.06 28.5201C34.06 22.5635 27.989 17.3601 20.11 17.3601C12.2311 17.3601 6.16002 22.5635 6.16002 28.5201C6.16002 31.9184 8.1186 35.1548 11.5475 37.3086L11.648 37.3644L14.53 38.9547V46.6635L21.2344 39.7527ZM23.9742 44.9421L13.7432 55.4883C13.3566 55.8871 12.8597 56.1615 12.3162 56.2762C11.7727 56.3909 11.2073 56.3408 10.6924 56.1322C10.1776 55.9236 9.73673 55.5661 9.42631 55.1054C9.11589 54.6448 8.95005 54.1019 8.95002 53.5465V42.2469C8.82538 42.1796 8.70258 42.1089 8.58174 42.0349C3.72993 38.9882 0.580017 34.0695 0.580017 28.5201C0.580017 19.2741 9.32388 11.7801 20.11 11.7801C30.8962 11.7801 39.64 19.2741 39.64 28.5201C39.64 36.1257 33.7225 42.5483 25.6175 44.585C25.0743 44.7242 24.5262 44.8433 23.9742 44.9421ZM19.9315 8.99012C23.3074 3.98765 29.6239 0.620117 36.85 0.620117C47.6362 0.620117 56.3801 8.11406 56.3801 17.3601C56.3801 22.9094 53.2274 27.8282 48.3783 30.8749C48.2575 30.9489 48.1347 31.0196 48.0101 31.0869V42.3864C48.01 42.9419 47.8442 43.4848 47.5338 43.9454C47.2234 44.4061 46.7825 44.7636 46.2676 44.9722C45.7528 45.1808 45.1874 45.2309 44.6439 45.1162C44.1004 45.0015 43.6035 44.7271 43.2168 44.3283L38.3762 39.3398L41.2862 34.3233L42.4301 35.5035V27.7947L45.3121 26.2044L45.4126 26.1486C48.8443 23.9948 50.8001 20.7584 50.8001 17.3601C50.8001 11.4035 44.729 6.20012 36.85 6.20012C33.2788 6.20012 30.0815 7.26869 27.6514 8.99012H19.9315Z" fill="black"/>
</svg>
