<svg width="67" height="67" viewBox="0 0 67 67" fill="none" xmlns="http://www.w3.org/2000/svg">
<path d="M16.712 13.792C17.1039 14.1843 17.324 14.7162 17.324 15.2707C17.324 15.8252 17.1039 16.357 16.712 16.7494C14.5098 18.9515 12.7629 21.5659 11.5711 24.4432C10.3792 27.3205 9.76581 30.4043 9.76581 33.5187C9.76581 36.633 10.3792 39.7169 11.5711 42.5942C12.7629 45.4715 14.5098 48.0858 16.712 50.288C17.093 50.6828 17.3037 51.2115 17.2987 51.7601C17.2936 52.3088 17.0733 52.8335 16.6852 53.2213C16.297 53.6091 15.7721 53.8289 15.2234 53.8334C14.6748 53.8379 14.1463 53.6268 13.7519 53.2454C2.85689 42.3504 2.85689 24.6869 13.7519 13.792C14.1442 13.4001 14.676 13.18 15.2306 13.18C15.7851 13.18 16.3169 13.4001 16.7093 13.792H16.712ZM53.2081 13.792C64.103 24.6869 64.103 42.3504 53.2081 53.2482C52.8114 53.6178 52.2868 53.819 51.7447 53.8095C51.2026 53.7999 50.6853 53.5803 50.3019 53.1969C49.9186 52.8135 49.699 52.2963 49.6894 51.7542C49.6798 51.2121 49.8811 50.6875 50.2507 50.2908C52.4533 48.0886 54.2006 45.474 55.3927 42.5965C56.5847 39.719 57.1983 36.6348 57.1983 33.5201C57.1983 30.4054 56.5847 27.3212 55.3927 24.4437C54.2006 21.5661 52.4533 18.9516 50.2507 16.7494C50.0451 16.5578 49.8802 16.3268 49.7658 16.0701C49.6515 15.8134 49.59 15.5364 49.585 15.2554C49.58 14.9744 49.6317 14.6953 49.737 14.4348C49.8422 14.1742 49.9989 13.9376 50.1976 13.7389C50.3963 13.5402 50.6329 13.3835 50.8935 13.2783C51.154 13.173 51.4331 13.1213 51.7141 13.1263C51.9951 13.1313 52.2721 13.1928 52.5288 13.3071C52.7855 13.4215 53.0165 13.5864 53.2081 13.792ZM24.6022 21.6821C24.994 22.0744 25.2141 22.6063 25.2141 23.1608C25.2141 23.7153 24.994 24.2472 24.6022 24.6395C23.4359 25.8054 22.5107 27.1896 21.8795 28.7131C21.2483 30.2367 20.9234 31.8696 20.9234 33.5187C20.9234 35.1678 21.2483 36.8007 21.8795 38.3242C22.5107 39.8477 23.4359 41.232 24.6022 42.3979C24.9718 42.7945 25.173 43.3192 25.1635 43.8613C25.1539 44.4034 24.9343 44.9206 24.5509 45.304C24.1675 45.6874 23.6503 45.907 23.1082 45.9165C22.5661 45.9261 22.0414 45.7249 21.6448 45.3553C18.5056 42.2159 16.7421 37.9582 16.7421 33.5187C16.7421 29.0791 18.5056 24.8214 21.6448 21.6821C22.0371 21.2902 22.569 21.0701 23.1235 21.0701C23.678 21.0701 24.2098 21.2902 24.6022 21.6821ZM45.3179 21.6821C48.4571 24.8214 50.2206 29.0791 50.2206 33.5187C50.2206 37.9582 48.4571 42.2159 45.3179 45.3553C45.125 45.5552 44.8942 45.7147 44.639 45.8245C44.3837 45.9343 44.1092 45.9922 43.8313 45.9947C43.5535 45.9972 43.2779 45.9444 43.0207 45.8393C42.7635 45.7342 42.5298 45.579 42.3332 45.3826C42.1367 45.1862 41.9812 44.9527 41.8759 44.6956C41.7705 44.4384 41.7174 44.1629 41.7197 43.8851C41.722 43.6073 41.7796 43.3326 41.8891 43.0773C41.9987 42.822 42.158 42.591 42.3578 42.3979C43.5236 41.232 44.4484 39.848 45.0794 38.3247C45.7103 36.8015 46.0351 35.1688 46.0351 33.5201C46.0351 31.8713 45.7103 30.2387 45.0794 28.7155C44.4484 27.1922 43.5236 25.8081 42.3578 24.6423C41.9881 24.2456 41.7869 23.721 41.7965 23.1789C41.806 22.6368 42.0256 22.1195 42.409 21.7362C42.7924 21.3528 43.3096 21.1332 43.8517 21.1236C44.3938 21.114 44.9185 21.3153 45.3152 21.6849L45.3179 21.6821ZM33.48 29.3351C34.5899 29.3351 35.6544 29.776 36.4392 30.5608C37.2241 31.3457 37.665 32.4101 37.665 33.5201C37.665 34.63 37.2241 35.6945 36.4392 36.4793C35.6544 37.2642 34.5899 37.7051 33.48 37.7051C32.37 37.7051 31.3056 37.2642 30.5207 36.4793C29.7359 35.6945 29.295 34.63 29.295 33.5201C29.295 32.4101 29.7359 31.3457 30.5207 30.5608C31.3056 29.776 32.37 29.3351 33.48 29.3351Z" fill="black"/>
</svg>
