<svg width="67" height="67" viewBox="0 0 67 67" fill="none" xmlns="http://www.w3.org/2000/svg">
<path d="M42.4479 43.0857C44.758 43.0857 46.6329 44.9606 46.6329 47.2707V52.0584L46.6137 52.3167C45.8724 57.4032 41.3048 59.8473 33.6402 59.8473C26.0044 59.8473 21.3626 57.4319 20.3606 52.4051L20.3271 52.0536V47.2707C20.3271 44.9606 22.202 43.0857 24.5121 43.0857H42.4479ZM43.6292 28.7372H57.9921C60.3023 28.7372 62.1771 30.612 62.1771 32.9222V37.7098L62.158 37.9681C61.4167 43.0546 56.849 45.4987 49.1845 45.4987L48.7828 45.4939C48.4141 44.1833 47.648 43.0192 46.5901 42.1622C45.5322 41.3051 44.2345 40.7973 42.8759 40.7087L42.4479 40.6943H40.243C41.4926 39.6867 42.5005 38.4117 43.1924 36.9632C43.8844 35.5148 44.2428 33.9296 44.2414 32.3243C44.2414 31.0664 44.0262 29.8611 43.6292 28.7372ZM8.96784 28.7372H23.3308C22.9338 29.8611 22.7186 31.0664 22.7186 32.3243C22.7186 35.5049 24.1008 38.3674 26.2961 40.3356L26.717 40.6943H24.5121C21.4941 40.6943 18.9497 42.727 18.1748 45.5011L18.0959 45.4987C10.4601 45.4987 5.81833 43.0833 4.81632 38.0566L4.78284 37.705V32.9222C4.78284 30.612 6.65772 28.7372 8.96784 28.7372ZM33.48 23.9543C35.6999 23.9543 37.8288 24.8361 39.3985 26.4058C40.9682 27.9755 41.85 30.1044 41.85 32.3243C41.85 34.5442 40.9682 36.6731 39.3985 38.2428C37.8288 39.8125 35.6999 40.6943 33.48 40.6943C31.2601 40.6943 29.1312 39.8125 27.5615 38.2428C25.9918 36.6731 25.11 34.5442 25.11 32.3243C25.11 30.1044 25.9918 27.9755 27.5615 26.4058C29.1312 24.8361 31.2601 23.9543 33.48 23.9543ZM49.0243 9.60571C51.2441 9.60571 53.3731 10.4876 54.9428 12.0572C56.5125 13.6269 57.3943 15.7559 57.3943 17.9757C57.3943 20.1956 56.5125 22.3245 54.9428 23.8942C53.3731 25.4639 51.2441 26.3457 49.0243 26.3457C46.8044 26.3457 44.6755 25.4639 43.1058 23.8942C41.5361 22.3245 40.6543 20.1956 40.6543 17.9757C40.6543 15.7559 41.5361 13.6269 43.1058 12.0572C44.6755 10.4876 46.8044 9.60571 49.0243 9.60571ZM17.9357 9.60571C20.1556 9.60571 22.2845 10.4876 23.8542 12.0572C25.4239 13.6269 26.3057 15.7559 26.3057 17.9757C26.3057 20.1956 25.4239 22.3245 23.8542 23.8942C22.2845 25.4639 20.1556 26.3457 17.9357 26.3457C15.7158 26.3457 13.5869 25.4639 12.0172 23.8942C10.4475 22.3245 9.5657 20.1956 9.5657 17.9757C9.5657 15.7559 10.4475 13.6269 12.0172 12.0572C13.5869 10.4876 15.7158 9.60571 17.9357 9.60571Z" fill="black"/>
</svg>
