<svg width="24" height="19" viewBox="0 0 24 19" fill="none" xmlns="http://www.w3.org/2000/svg">
<path d="M0.472926 18.045V13.4485C0.472926 12.0525 0.719777 10.5714 1.21348 9.00517C1.7242 7.42193 2.45624 5.89827 3.40959 4.43419C4.37997 2.95309 5.54612 1.66776 6.90805 0.57822L10.1767 3.23399C9.10417 4.76616 8.16784 6.36643 7.36771 8.0348C6.5846 9.68614 6.19304 11.4567 6.19304 13.3463V18.045H0.472926ZM13.5475 18.045V13.4485C13.5475 12.0525 13.7943 10.5714 14.288 9.00517C14.7987 7.42193 15.5308 5.89827 16.4841 4.43419C17.4545 2.95309 18.6207 1.66776 19.9826 0.57822L23.2512 3.23399C22.1787 4.76616 21.2424 6.36643 20.4423 8.0348C19.6591 9.68614 19.2676 11.4567 19.2676 13.3463V18.045H13.5475Z" fill="#004AAD"/>
</svg>
