<svg width="24" height="19" viewBox="0 0 24 19" fill="none" xmlns="http://www.w3.org/2000/svg">
<path d="M23.5271 0.955002V5.55153C23.5271 6.9475 23.2802 8.42861 22.7865 9.99483C22.2758 11.5781 21.5438 13.1017 20.5904 14.5658C19.62 16.0469 18.4539 17.3322 17.0919 18.4218L13.8233 15.766C14.8958 14.2338 15.8322 12.6336 16.6323 10.9652C17.4154 9.31386 17.807 7.54335 17.807 5.65367V0.955002H23.5271ZM10.4525 0.955002V5.55153C10.4525 6.9475 10.2057 8.42861 9.71198 9.99483C9.20125 11.5781 8.46921 13.1017 7.51586 14.5658C6.54548 16.0469 5.37933 17.3322 4.0174 18.4218L0.748761 15.766C1.82128 14.2338 2.75761 12.6336 3.55775 10.9652C4.34086 9.31386 4.73241 7.54335 4.73241 5.65367V0.955002H10.4525Z" fill="#004AAD"/>
</svg>
