<svg width="67" height="67" viewBox="0 0 67 67" fill="none" xmlns="http://www.w3.org/2000/svg">
<path d="M61.1569 18.5098C60.8737 17.8281 60.332 17.2863 59.6503 17.0032C59.3148 16.8603 58.9547 16.7844 58.5901 16.78H44.64C43.9001 16.78 43.1904 17.074 42.6672 17.5972C42.144 18.1204 41.85 18.8301 41.85 19.57C41.85 20.31 42.144 21.0196 42.6672 21.5429C43.1904 22.0661 43.9001 22.36 44.64 22.36H51.8662L36.27 37.9561L27.0909 28.7491C26.8316 28.4876 26.523 28.2801 26.183 28.1384C25.843 27.9968 25.4783 27.9239 25.11 27.9239C24.7417 27.9239 24.3771 27.9968 24.0371 28.1384C23.6971 28.2801 23.3885 28.4876 23.1291 28.7491L6.38912 45.4892C6.12762 45.7485 5.92006 46.0571 5.77841 46.3971C5.63677 46.7371 5.56384 47.1017 5.56384 47.4701C5.56384 47.8384 5.63677 48.203 5.77841 48.543C5.92006 48.883 6.12762 49.1916 6.38912 49.4509C6.64849 49.7125 6.95707 49.92 7.29705 50.0617C7.63704 50.2033 8.00171 50.2762 8.37002 50.2762C8.73834 50.2762 9.103 50.2033 9.44299 50.0617C9.78298 49.92 10.0916 49.7125 10.3509 49.4509L25.11 34.6639L34.2891 43.8709C34.5485 44.1325 34.8571 44.34 35.1971 44.4817C35.5371 44.6233 35.9017 44.6962 36.27 44.6962C36.6384 44.6962 37.003 44.6233 37.343 44.4817C37.683 44.34 37.9916 44.1325 38.2509 43.8709L55.8001 26.2939V33.52C55.8001 34.26 56.094 34.9696 56.6172 35.4929C57.1405 36.0161 57.8501 36.31 58.5901 36.31C59.33 36.31 60.0397 36.0161 60.5629 35.4929C61.0861 34.9696 61.3801 34.26 61.3801 33.52V19.57C61.3757 19.2054 61.2998 18.8453 61.1569 18.5098Z" fill="black"/>
</svg>
